<?xml version="1.0" encoding="UTF-8" standalone="no"?>
<svg width="571px" height="578px" viewBox="0 0 571 578" version="1.1" xmlns="http://www.w3.org/2000/svg" xmlns:xlink="http://www.w3.org/1999/xlink" xmlns:sketch="http://www.bohemiancoding.com/sketch/ns">
    <!-- Generator: Sketch 3.3.3 (12081) - http://www.bohemiancoding.com/sketch -->
    <title>Slice 1</title>
    <desc>Created with Sketch.</desc>
    <defs>
        <circle id="path-1" cx="285" cy="289" r="281"></circle>
    </defs>
    <g id="Page-1" stroke="none" stroke-width="1" fill="none" fill-rule="evenodd" sketch:type="MSPage">
        <mask id="mask-2" sketch:name="Mask" fill="white">
            <use xlink:href="#path-1"></use>
        </mask>
        <use id="Mask" fill="#1E9B93" sketch:type="MSShapeGroup" xlink:href="#path-1"></use>
        <g id="Group" sketch:type="MSLayerGroup" mask="url(#mask-2)" fill="#FEFEFE">
            <g transform="translate(87.000000, 144.000000)" sketch:type="MSShapeGroup">
                <path d="M299.169,42.65 C297.958994,40.6333232 296.628007,38.5561774 295.176,36.4185 C293.723993,34.2808226 292.130842,32.3246755 290.3965,30.55 C288.662158,28.7753245 286.806843,27.323339 284.8305,26.194 C282.854157,25.064661 280.817344,24.5 278.72,24.5 C277.34866,24.5 276.098339,24.8629964 274.969,25.589 C273.839661,26.3150036 273.275,27.5653245 273.275,29.34 C273.275,30.9533414 273.96066,32.5061592 275.332,33.9985 C276.70334,35.4908408 278.397323,37.0033257 280.414,38.536 C282.430677,40.0686743 284.648988,41.6819915 287.069,43.376 C289.489012,45.0700085 291.707323,46.9454897 293.724,49.0025 C295.740677,51.0595103 297.43466,53.3181544 298.806,55.7785 C300.17734,58.2388456 300.863,61.0016513 300.863,64.067 C300.863,67.2130157 300.056341,70.1371532 298.443,72.8395 C296.829659,75.5418468 294.571015,77.8811568 291.667,79.8575 C288.762985,81.8338432 285.274187,83.386661 281.2005,84.516 C277.126813,85.645339 272.629691,86.21 267.709,86.21 C266.256993,86.21 264.482344,86.1091677 262.385,85.9075 C260.287656,85.7058323 258.150011,85.4033353 255.972,85 C253.793989,84.5966647 251.757176,84.1530024 249.8615,83.669 C247.965824,83.1849976 246.453339,82.6203366 245.324,81.975 L246.292,65.64 L247.502,65.64 C248.712006,68.4633475 250.143825,71.0648214 251.7975,73.4445 C253.451175,75.8241786 255.185491,77.8609915 257.0005,79.555 C258.815509,81.2490085 260.69099,82.5799952 262.627,83.548 C264.56301,84.5160048 266.49899,85 268.435,85 C270.37101,85 271.984327,84.5361713 273.275,83.6085 C274.565673,82.6808287 275.211,81.4103414 275.211,79.797 C275.211,78.5063269 274.545507,77.256006 273.2145,76.046 C271.883493,74.8359939 270.209677,73.5856731 268.193,72.295 C266.176323,71.0043269 263.978179,69.5926743 261.5985,68.06 C259.218821,66.5273257 257.020677,64.7526768 255.004,62.736 C252.987323,60.7193233 251.313507,58.4001798 249.9825,55.7785 C248.651493,53.1568202 247.986,50.111684 247.986,46.643 C247.986,43.9003196 248.550661,41.1576804 249.68,38.415 C250.809339,35.6723196 252.624321,33.171678 255.125,30.913 C257.625679,28.654322 260.832147,26.8191737 264.7445,25.4075 C268.656853,23.9958263 273.395972,23.29 278.962,23.29 C281.785347,23.29 285.213646,23.6529964 289.247,24.379 C293.280353,25.1050036 297.111982,26.1536598 300.742,27.525 L300.379,42.65 L299.169,42.65 Z" id="s"></path>
                <path d="M359.169,42.65 C357.958994,40.6333232 356.628007,38.5561774 355.176,36.4185 C353.723993,34.2808226 352.130842,32.3246755 350.3965,30.55 C348.662158,28.7753245 346.806843,27.323339 344.8305,26.194 C342.854157,25.064661 340.817344,24.5 338.72,24.5 C337.34866,24.5 336.098339,24.8629964 334.969,25.589 C333.839661,26.3150036 333.275,27.5653245 333.275,29.34 C333.275,30.9533414 333.96066,32.5061592 335.332,33.9985 C336.70334,35.4908408 338.397323,37.0033257 340.414,38.536 C342.430677,40.0686743 344.648988,41.6819915 347.069,43.376 C349.489012,45.0700085 351.707323,46.9454897 353.724,49.0025 C355.740677,51.0595103 357.43466,53.3181544 358.806,55.7785 C360.17734,58.2388456 360.863,61.0016513 360.863,64.067 C360.863,67.2130157 360.056341,70.1371532 358.443,72.8395 C356.829659,75.5418468 354.571015,77.8811568 351.667,79.8575 C348.762985,81.8338432 345.274187,83.386661 341.2005,84.516 C337.126813,85.645339 332.629691,86.21 327.709,86.21 C326.256993,86.21 324.482344,86.1091677 322.385,85.9075 C320.287656,85.7058323 318.150011,85.4033353 315.972,85 C313.793989,84.5966647 311.757176,84.1530024 309.8615,83.669 C307.965824,83.1849976 306.453339,82.6203366 305.324,81.975 L306.292,65.64 L307.502,65.64 C308.712006,68.4633475 310.143825,71.0648214 311.7975,73.4445 C313.451175,75.8241786 315.185491,77.8609915 317.0005,79.555 C318.815509,81.2490085 320.69099,82.5799952 322.627,83.548 C324.56301,84.5160048 326.49899,85 328.435,85 C330.37101,85 331.984327,84.5361713 333.275,83.6085 C334.565673,82.6808287 335.211,81.4103414 335.211,79.797 C335.211,78.5063269 334.545507,77.256006 333.2145,76.046 C331.883493,74.8359939 330.209677,73.5856731 328.193,72.295 C326.176323,71.0043269 323.978179,69.5926743 321.5985,68.06 C319.218821,66.5273257 317.020677,64.7526768 315.004,62.736 C312.987323,60.7193233 311.313507,58.4001798 309.9825,55.7785 C308.651493,53.1568202 307.986,50.111684 307.986,46.643 C307.986,43.9003196 308.550661,41.1576804 309.68,38.415 C310.809339,35.6723196 312.624321,33.171678 315.125,30.913 C317.625679,28.654322 320.832147,26.8191737 324.7445,25.4075 C328.656853,23.9958263 333.395972,23.29 338.962,23.29 C341.785347,23.29 345.213646,23.6529964 349.247,24.379 C353.280353,25.1050036 357.111982,26.1536598 360.742,27.525 L360.379,42.65 L359.169,42.65 Z" id="s-copy"></path>
                <path d="M164.968057,100.60189 C163.952614,100.11597 162.827715,99.6966744 161.593355,99.344 C159.052342,98.6179964 156.26937,98.0735018 153.244355,97.7105 C150.21934,97.3474982 147.093538,97.1458335 143.866855,97.1055 C140.640172,97.0651665 137.57487,97.045 134.670855,97.045 L134.428855,98.255 C135.961529,98.5776683 136.788355,99.041497 136.909355,99.6465 C137.030356,100.251503 136.969856,101.481657 136.727855,103.337 L125.837855,181.745 L157.902855,181.745 L161.653855,155.125 C162.299192,150.44631 162.984851,146.614682 163.710855,143.63 C164.436859,140.645318 165.122519,138.306008 165.767855,136.612 C166.413192,134.917992 167.038352,133.748337 167.643355,133.103 C168.248358,132.457663 168.75252,132.135 169.155855,132.135 C169.55919,132.135 169.922187,132.296332 170.244855,132.619 C170.567523,132.941668 170.648189,133.78866 170.486855,135.16 L165.162855,173.275 C164.75952,176.340349 165.909008,178.719992 168.611355,180.414 C171.313702,182.108008 174.963832,182.955 179.561855,182.955 C183.191873,182.955 186.842003,182.309673 190.512355,181.019 C194.182707,179.728327 197.510174,177.953678 200.494855,175.695 L200.615855,174.485 C200.454521,174.565667 200.212523,174.646333 199.889855,174.727 C199.567187,174.807667 199.20419,174.848 198.800855,174.848 C198.155519,174.848 197.711856,174.646335 197.469855,174.243 C197.227854,173.839665 197.147188,173.396002 197.227855,172.912 L202.188855,138.185 C202.672858,134.87765 202.592192,132.074511 201.946855,129.7755 C201.301519,127.476489 200.252862,125.601007 198.800855,124.149 C197.348848,122.696993 195.594365,121.648337 193.537355,121.003 C191.480345,120.357663 189.241867,120.035 186.821855,120.035 C184.643844,120.035 182.465866,120.317331 180.287855,120.882 C178.109844,121.446669 176.052865,122.41466 174.116855,123.786 C172.180845,125.15734 170.365864,126.972322 168.671855,129.231 C166.977847,131.489678 165.485528,134.27265 164.194855,137.58 L163.589855,137.58 L168.855595,103.528218 C167.836667,102.246116 166.35686,101.286874 164.968057,100.60189 Z" id="h"></path>
                <path d="M111.752,171.715 C111.509999,173.247674 111.610831,174.538328 112.0545,175.587 C112.498169,176.635672 113.768656,177.16 115.866,177.16 C117.156673,177.16 118.447327,176.81717 119.738,176.1315 C121.028673,175.44583 122.117662,174.780337 123.005,174.135 L123.368,175.345 C119.657315,178.007013 115.382024,179.983327 110.542,181.274 C105.701976,182.564673 101.184688,183.21 96.99,183.21 C94.3279867,183.21 91.867678,182.927669 89.609,182.363 C87.350322,181.798331 85.4748408,180.931173 83.9825,179.7615 C82.4901592,178.591827 81.3810036,177.099509 80.655,175.2845 C79.9289964,173.469491 79.7273317,171.271346 80.05,168.69 L86.584,122.71 L83.559,122.71 L83.68,121.5 L86.705,121.5 L120.101,103.35 L121.311,103.35 L118.77,121.5 L129.055,121.5 L128.934,122.71 L118.649,122.71 L111.752,171.715 Z" id="t"></path>
                <path d="M203.656,74.11 C204.059335,74.11 204.462665,73.7671701 204.866,73.0815 C205.269335,72.3958299 205.712998,71.1253426 206.197,69.27 C206.681002,67.4146574 207.225497,64.8333499 207.8305,61.526 C208.435503,58.2186501 209.100996,53.9433595 209.827,48.7 L212.247,31.76 C212.650335,28.6946513 212.670502,26.7183378 212.3075,25.831 C211.944498,24.9436622 211.440337,24.5 210.795,24.5 C209.584994,24.5 208.415339,25.931819 207.286,28.7955 C206.156661,31.659181 205.168504,35.2488118 204.3215,39.5645 C203.474496,43.8801882 202.788836,48.4983087 202.2645,53.419 C201.740164,58.3396913 201.478,62.8569794 201.478,66.971 C201.478,69.1490109 201.619165,70.8833269 201.9015,72.174 C202.183835,73.4646731 202.768662,74.11 203.656,74.11 L203.656,74.11 Z M238.02,76.167 C237.939333,76.6510024 238.019999,77.0946646 238.262,77.498 C238.504001,77.9013354 238.947663,78.103 239.593,78.103 C239.996335,78.103 240.359332,78.0626671 240.682,77.982 C241.004668,77.9013329 241.246666,77.8206671 241.408,77.74 L241.287,78.95 C238.302318,81.208678 234.974852,82.9833269 231.3045,84.274 C227.634148,85.5646731 223.984018,86.21 220.354,86.21 C215.755977,86.21 212.267179,85.3630085 209.8875,83.669 C207.507821,81.9749915 206.519665,79.5953487 206.923,76.53 L207.77,70.48 L207.165,70.48 C206.358329,73.7066828 205.309673,76.3283233 204.019,78.345 C202.728327,80.3616768 201.276341,81.9548275 199.663,83.1245 C198.049659,84.2941725 196.335509,85.1008311 194.5205,85.5445 C192.705491,85.9881689 190.910676,86.21 189.136,86.21 C185.909317,86.21 183.045679,85.6251725 180.545,84.4555 C178.044321,83.2858275 175.947008,81.6120109 174.253,79.434 C172.558992,77.2559891 171.268338,74.6545151 170.381,71.6295 C169.493662,68.6044849 169.05,65.2366852 169.05,61.526 C169.05,55.4759697 170.098656,50.0915236 172.196,45.3725 C174.293344,40.6534764 177.156982,36.6605163 180.787,33.3935 C184.417018,30.1264837 188.712475,27.625842 193.6735,25.8915 C198.634525,24.157158 204.018971,23.29 209.827,23.29 C216.199699,23.29 221.805976,24.6008202 226.646,27.2225 C231.486024,29.8441798 235.317653,32.9699819 238.141,36.6 L244.312,23.29 L245.522,23.29 L238.02,76.167 Z" id="a"></path>
                <path d="M125.47,60.8 C124.421328,69.7540448 122.223183,77.3769685 118.8755,83.669 C115.527817,89.9610315 111.413858,95.0833136 106.5335,99.036 C101.653142,102.988686 96.2485296,105.872491 90.3195,107.6875 C84.3904704,109.502509 78.2800315,110.41 71.988,110.41 C67.1479758,110.41 62.5903547,109.865505 58.315,108.7765 C54.0396453,107.687495 50.3088493,105.993511 47.1225,103.6945 C43.9361507,101.395489 41.4153426,98.4713511 39.56,94.922 C37.7046574,91.3726489 36.777,87.1376913 36.777,82.217 C36.777,79.0709843 37.2004958,76.328345 38.0475,73.989 C38.8945042,71.649655 40.0036598,69.7136743 41.375,68.181 C42.7463402,66.6483257 44.299158,65.4988372 46.0335,64.7325 C47.767842,63.9661628 49.5626574,63.583 51.418,63.583 C54.3220145,63.583 56.8428226,64.5308239 58.9805,66.4265 C61.1181774,68.3221761 62.187,70.8833172 62.187,74.11 C62.187,76.2880109 61.7635042,78.1433257 60.9165,79.676 C60.0694958,81.2086743 58.9805067,82.4589952 57.6495,83.427 C56.3184933,84.3950048 54.7656755,85.1008311 52.991,85.5445 C51.2163245,85.9881689 49.4416755,86.21 47.667,86.21 C45.327655,86.21 43.593339,86.6939952 42.464,87.662 C41.334661,88.6300048 40.77,89.8803257 40.77,91.413 C40.77,93.671678 41.4556598,95.8093233 42.827,97.826 C44.1983402,99.8426768 45.9729891,101.597159 48.151,103.0895 C50.3290109,104.581841 52.7893196,105.771662 55.532,106.659 C58.2746804,107.546338 61.0173196,107.99 63.76,107.99 C67.0673499,107.99 70.1124861,107.506005 72.8955,106.538 C75.6785139,105.569995 78.1388226,103.896179 80.2765,101.5165 C82.4141774,99.1368214 84.2493257,95.9303535 85.782,91.897 C87.3146743,87.8636465 88.4843293,82.7413644 89.291,76.53 L94.131,40.23 C94.7763366,35.3899758 96.0871568,30.8323547 98.0635,26.557 C100.039843,22.2816453 102.500152,18.4701834 105.4445,15.1225 C108.388848,11.7748166 111.756648,8.93134503 115.548,6.592 C119.339352,4.25265497 123.372645,2.55867191 127.648,1.51 L41.375,1.51 C36.0509734,1.51 31.2715212,2.23599274 27.0365,3.688 C22.8014788,5.14000726 19.1311822,6.93482264 16.0255,9.0725 C12.9198178,11.2101774 10.4595091,13.5293208 8.6445,16.03 C6.82949092,18.5306792 5.70016889,20.8498226 5.2565,22.9875 C4.81283111,25.1251774 5.11532809,26.9199927 6.164,28.372 C7.21267191,29.8240073 9.06798669,30.55 11.73,30.55 C13.5046755,30.55 15.2793245,30.7113317 17.054,31.034 C18.8286755,31.3566683 20.3814933,31.9213293 21.7125,32.728 C23.0435067,33.5346707 24.1324958,34.6438263 24.9795,36.0555 C25.8265042,37.4671737 26.25,39.2619891 26.25,41.44 C26.25,44.6666828 25.1811774,47.2278239 23.0435,49.1235 C20.9058226,51.0191761 18.3850145,51.967 15.481,51.967 C13.6256574,51.967 11.830842,51.6443366 10.0965,50.999 C8.36215799,50.3536634 6.80934019,49.3655067 5.438,48.0345 C4.06665981,46.7034933 2.95750423,44.9893438 2.1105,42.892 C1.26349577,40.7946562 0.84,38.2536816 0.84,35.269 C0.84,29.7836392 1.92898911,24.8831882 4.107,20.5675 C6.28501089,16.2518118 9.20914831,12.5815151 12.8795,9.5565 C16.5498517,6.53148487 20.8453087,4.23250787 25.766,2.6595 C30.6866913,1.08649214 35.8896392,0.3 41.375,0.3 L148.218,0.3 C157.736714,0.3 165.057141,2.09481539 170.1795,5.6845 C175.301859,9.27418461 177.863,14.4972991 177.863,21.354 C177.863,25.7100218 177.016008,29.6626489 175.322,33.212 C173.627992,36.7613511 171.187849,39.8266538 168.0015,42.408 C164.815151,44.9893462 160.963356,46.9858263 156.446,48.3975 C151.928644,49.8091737 146.846695,50.515 141.2,50.515 L126.68,50.515 L125.47,60.8 Z M126.801,49.305 L129.221,49.305 C130.915008,49.305 132.588825,48.7000061 134.2425,47.49 C135.896175,46.279994 137.388493,44.3440133 138.7195,41.682 C140.050507,39.0199867 141.139496,35.5916876 141.9865,31.397 C142.833504,27.2023124 143.257,22.0800302 143.257,16.03 C143.257,13.0453184 143.055335,10.6051761 142.652,8.7095 C142.248665,6.81382386 141.70417,5.34167191 141.0185,4.293 C140.33283,3.24432809 139.566504,2.51833535 138.7195,2.115 C137.872496,1.71166465 136.965005,1.51 135.997,1.51 C135.270996,1.51 134.666002,1.85282991 134.182,2.5385 C133.697998,3.2241701 133.375334,4.01066223 133.214,4.898 L126.801,49.305 Z" id="P"></path>
                <path d="M263.518689,173.333675 L263.424746,173.194398 L293.423922,152.959698 C298.038258,149.847289 302.871877,147.57243 307.924923,146.135055 C312.97797,144.697679 317.926758,144.240252 322.771436,144.762758 C327.616115,145.285265 332.207897,146.786877 336.546919,149.26764 C340.885942,151.748403 344.648542,155.350664 347.834831,160.074532 C349.568547,162.644872 350.688278,165.073394 351.194057,167.360172 C351.699836,169.646949 351.762505,171.752473 351.382064,173.676808 C351.001624,175.601143 350.269371,177.333195 349.185284,178.873014 C348.101197,180.412834 346.778808,181.709088 345.218076,182.761814 C342.775193,184.40956 340.104102,185.02363 337.204724,184.604041 C334.305346,184.184452 331.918549,182.585308 330.044261,179.806562 C328.779117,177.930909 328.092808,176.144962 327.985315,174.448668 C327.877822,172.752374 328.149613,171.179299 328.800696,169.729396 C329.45178,168.279492 330.430029,166.912146 331.735474,165.627316 C333.040918,164.342485 334.440056,163.196609 335.93293,162.189653 C338.17224,160.679219 339.31124,159.0013 339.349963,157.155845 C339.388686,155.31039 338.600592,153.593098 336.985658,152.003918 C335.370724,150.414738 333.073604,149.058325 330.094228,147.934638 C327.114853,146.810951 323.698094,146.209744 319.84385,146.130998 C315.989606,146.052251 311.859562,146.589134 307.453593,147.741661 C303.047625,148.894188 298.605397,150.980854 294.126776,154.001722 L264.1276,174.236422 L264.1276,174.236422 L264.08864,174.178662 C263.358426,174.715816 262.514549,175.295593 261.557,175.918 C259.943659,176.966672 257.987511,177.954829 255.6885,178.8825 C253.389489,179.810171 250.727515,180.596663 247.7025,181.242 C244.677485,181.887337 241.309685,182.21 237.599,182.21 C232.436308,182.21 227.85852,181.463841 223.8655,179.9715 C219.87248,178.479159 216.50468,176.462513 213.762,173.9215 C211.01932,171.380487 208.922007,168.45635 207.47,165.149 C206.017993,161.84165 205.292,158.332685 205.292,154.622 C205.292,149.055972 206.441489,144.095022 208.7405,139.739 C211.039511,135.382978 214.145147,131.692515 218.0575,128.6675 C221.969853,125.642485 226.567807,123.323341 231.8515,121.71 C237.135193,120.096659 242.80197,119.29 248.852,119.29 C252.240017,119.29 255.385985,119.652996 258.29,120.379 C261.194015,121.105004 263.714823,122.193993 265.8525,123.646 C267.990177,125.098007 269.663994,126.872656 270.874,128.97 C272.084006,131.067344 272.689,133.48732 272.689,136.23 C272.689,137.440006 272.426836,138.992824 271.9025,140.8885 C271.378164,142.784176 269.986678,144.659657 267.728,146.515 C265.469322,148.370343 262.041023,150.044159 257.443,151.5365 C252.844977,153.028841 246.512707,153.936332 238.446,154.259 L238.446,156.679 C238.446,160.793021 238.829163,164.16082 239.5955,166.7825 C240.361837,169.40418 241.390327,171.440993 242.681,172.893 C243.971673,174.345007 245.484158,175.353331 247.2185,175.918 C248.952842,176.482669 250.828323,176.765 252.845,176.765 C254.377674,176.765 255.809493,176.563335 257.1405,176.16 C258.471507,175.756665 259.701661,175.292836 260.831,174.7685 C261.861137,174.290222 262.757026,173.811951 263.518689,173.333675 Z M248.005,120.5 C246.956328,120.5 245.907672,121.629322 244.859,123.888 C243.810328,126.146678 242.862504,128.949817 242.0155,132.2975 C241.168496,135.645183 240.442503,139.194481 239.8375,142.9455 C239.232497,146.696519 238.809001,150.064318 238.567,153.049 C240.745011,152.403663 242.559993,150.992011 244.012,148.814 C245.464007,146.635989 246.633662,144.216013 247.521,141.554 C248.408338,138.891987 249.033498,136.209847 249.3965,133.5075 C249.759502,130.805153 249.941,128.566676 249.941,126.792 C249.941,124.936657 249.799835,123.424173 249.5175,122.2545 C249.235165,121.084827 248.731004,120.5 248.005,120.5 L248.005,120.5 Z" id="P"></path>
                <path d="M113.98,206.39 C113.576665,206.39 113.173335,206.73283 112.77,207.4185 C112.366665,208.10417 111.923002,209.374657 111.439,211.23 C110.954998,213.085343 110.410503,215.66665 109.8055,218.974 C109.200497,222.28135 108.535004,226.55664 107.809,231.8 L105.389,248.74 C104.985665,251.805349 104.965498,253.781662 105.3285,254.669 C105.691502,255.556338 106.195663,256 106.841,256 C108.051006,256 109.220661,254.568181 110.35,251.7045 C111.479339,248.840819 112.467496,245.251188 113.3145,240.9355 C114.161504,236.619812 114.847164,232.001691 115.3715,227.081 C115.895836,222.160309 116.158,217.643021 116.158,213.529 C116.158,211.350989 116.016835,209.616673 115.7345,208.326 C115.452165,207.035327 114.867338,206.39 113.98,206.39 L113.98,206.39 Z M79.858,201.792 C80.1000012,199.936657 80.1605006,198.706503 80.0395,198.1015 C79.9184994,197.496497 79.0916743,197.032668 77.559,196.71 L77.801,195.5 L111.802,194.29 L113.012,194.29 L109.866,210.02 L110.471,210.02 C111.277671,206.793317 112.326327,204.171677 113.617,202.155 C114.907673,200.138323 116.359659,198.545173 117.973,197.3755 C119.586341,196.205827 121.280324,195.399169 123.055,194.9555 C124.829676,194.511831 126.644657,194.29 128.5,194.29 C131.726683,194.29 134.590321,194.874827 137.091,196.0445 C139.591679,197.214173 141.688992,198.887989 143.383,201.066 C145.077008,203.244011 146.367662,205.845485 147.255,208.8705 C148.142338,211.895515 148.586,215.263315 148.586,218.974 C148.586,225.02403 147.537344,230.408476 145.44,235.1275 C143.342656,239.846524 140.539518,243.839484 137.0305,247.1065 C133.521482,250.373516 129.468023,252.874158 124.87,254.6085 C120.271977,256.342842 115.432025,257.21 110.35,257.21 C109.946665,257.21 109.039174,257.169667 107.6275,257.089 C106.215826,257.008333 105.066338,256.887334 104.179,256.726 L102.727,266.648 C101.436327,275.602045 99.0768505,283.245135 95.6485,289.5775 C92.2201495,295.909865 88.1061907,301.07248 83.3065,305.0655 C78.5068093,309.05852 73.1626961,311.962491 67.274,313.7775 C61.3853039,315.592509 55.2950315,316.5 49.003,316.5 C44.1629758,316.5 39.6053547,315.955505 35.33,314.8665 C31.0546453,313.777495 27.3238493,312.083511 24.1375,309.7845 C20.9511507,307.485489 18.4303426,304.561351 16.575,301.012 C14.7196574,297.462649 13.792,293.227691 13.792,288.307 C13.792,285.160984 14.2154958,282.418345 15.0625,280.079 C15.9095042,277.739655 17.0186598,275.803674 18.39,274.271 C19.7613402,272.738326 21.314158,271.588837 23.0485,270.8225 C24.782842,270.056163 26.5776574,269.673 28.433,269.673 C31.3370145,269.673 33.8578226,270.620824 35.9955,272.5165 C38.1331774,274.412176 39.202,276.973317 39.202,280.2 C39.202,282.378011 38.7785042,284.233326 37.9315,285.766 C37.0844958,287.298674 35.9955067,288.548995 34.6645,289.517 C33.3334933,290.485005 31.7806755,291.190831 30.006,291.6345 C28.2313245,292.078169 26.4566755,292.3 24.682,292.3 C22.342655,292.3 20.608339,292.783995 19.479,293.752 C18.349661,294.720005 17.785,295.970326 17.785,297.503 C17.785,299.761678 18.4706598,301.899323 19.842,303.916 C21.2133402,305.932677 22.9879891,307.687159 25.166,309.1795 C27.3440109,310.671841 29.8043196,311.861662 32.547,312.749 C35.2896804,313.636338 38.0323196,314.08 40.775,314.08 C44.0823499,314.08 47.2283184,313.555672 50.213,312.507 C53.1976816,311.458328 55.9604873,309.300516 58.5015,306.0335 C61.0425127,302.766484 63.3414897,298.10803 65.3985,292.058 C67.4555103,286.00797 69.1696598,277.981717 70.541,267.979 L79.858,201.792 Z" id="p"></path>
                <path d="M218.689,211.23 C218.689,212.440006 218.426836,213.992824 217.9025,215.8885 C217.378164,217.784176 215.986678,219.659657 213.728,221.515 C211.469322,223.370343 208.041023,225.044159 203.443,226.5365 C198.844977,228.028841 192.512707,228.936332 184.446,229.259 L184.446,231.679 C184.446,235.793021 184.829163,239.16082 185.5955,241.7825 C186.361837,244.40418 187.390327,246.440993 188.681,247.893 C189.971673,249.345007 191.484158,250.353331 193.2185,250.918 C194.952842,251.482669 196.828323,251.765 198.845,251.765 C200.377674,251.765 201.809493,251.563335 203.1405,251.16 C204.471507,250.756665 205.701661,250.292836 206.831,249.7685 C207.960339,249.244164 208.928329,248.719836 209.735,248.1955 C210.541671,247.671164 211.186998,247.247668 211.671,246.925 L211.429,248.135 C210.460995,248.941671 209.170341,249.869328 207.557,250.918 C205.943659,251.966672 203.987511,252.954829 201.6885,253.8825 C199.389489,254.810171 196.727515,255.596663 193.7025,256.242 C190.677485,256.887337 187.309685,257.21 183.599,257.21 C178.436308,257.21 173.85852,256.463841 169.8655,254.9715 C165.87248,253.479159 162.50468,251.462513 159.762,248.9215 C157.01932,246.380487 154.922007,243.45635 153.47,240.149 C152.017993,236.84165 151.292,233.332685 151.292,229.622 C151.292,224.055972 152.441489,219.095022 154.7405,214.739 C157.039511,210.382978 160.145147,206.692515 164.0575,203.6675 C167.969853,200.642485 172.567807,198.323341 177.8515,196.71 C183.135193,195.096659 188.80197,194.29 194.852,194.29 C198.240017,194.29 201.385985,194.652996 204.29,195.379 C207.194015,196.105004 209.714823,197.193993 211.8525,198.646 C213.990177,200.098007 215.663994,201.872656 216.874,203.97 C218.084006,206.067344 218.689,208.48732 218.689,211.23 L218.689,211.23 Z M194.005,195.5 C192.956328,195.5 191.907672,196.629322 190.859,198.888 C189.810328,201.146678 188.862504,203.949817 188.0155,207.2975 C187.168496,210.645183 186.442503,214.194481 185.8375,217.9455 C185.232497,221.696519 184.809001,225.064318 184.567,228.049 C186.745011,227.403663 188.559993,225.992011 190.012,223.814 C191.464007,221.635989 192.633662,219.216013 193.521,216.554 C194.408338,213.891987 195.033498,211.209847 195.3965,208.5075 C195.759502,205.805153 195.941,203.566676 195.941,201.792 C195.941,199.936657 195.799835,198.424173 195.5175,197.2545 C195.235165,196.084827 194.731004,195.5 194.005,195.5 L194.005,195.5 Z" id="e"></path>
                <path d="M255.656,244.11 C256.059335,244.11 256.462665,243.76717 256.866,243.0815 C257.269335,242.39583 257.712998,241.125343 258.197,239.27 C258.681002,237.414657 259.225497,234.83335 259.8305,231.526 C260.435503,228.21865 261.100996,223.94336 261.827,218.7 L264.247,201.76 C264.650335,198.694651 264.670502,196.718338 264.3075,195.831 C263.944498,194.943662 263.440337,194.5 262.795,194.5 C261.584994,194.5 260.415339,195.931819 259.286,198.7955 C258.156661,201.659181 257.168504,205.248812 256.3215,209.5645 C255.474496,213.880188 254.788836,218.498309 254.2645,223.419 C253.740164,228.339691 253.478,232.856979 253.478,236.971 C253.478,239.149011 253.619165,240.883327 253.9015,242.174 C254.183835,243.464673 254.768662,244.11 255.656,244.11 L255.656,244.11 Z M290.02,246.167 C289.939333,246.651002 290.019999,247.094665 290.262,247.498 C290.504001,247.901335 290.947663,248.103 291.593,248.103 C291.996335,248.103 292.359332,248.062667 292.682,247.982 C293.004668,247.901333 293.246666,247.820667 293.408,247.74 L293.287,248.95 C290.302318,251.208678 286.974852,252.983327 283.3045,254.274 C279.634148,255.564673 275.984018,256.21 272.354,256.21 C267.755977,256.21 264.267179,255.363008 261.8875,253.669 C259.507821,251.974992 258.519665,249.595349 258.923,246.53 L259.77,240.48 L259.165,240.48 C258.358329,243.706683 257.309673,246.328323 256.019,248.345 C254.728327,250.361677 253.276341,251.954827 251.663,253.1245 C250.049659,254.294173 248.335509,255.100831 246.5205,255.5445 C244.705491,255.988169 242.910676,256.21 241.136,256.21 C237.909317,256.21 235.045679,255.625173 232.545,254.4555 C230.044321,253.285827 227.947008,251.612011 226.253,249.434 C224.558992,247.255989 223.268338,244.654515 222.381,241.6295 C221.493662,238.604485 221.05,235.236685 221.05,231.526 C221.05,225.47597 222.098656,220.091524 224.196,215.3725 C226.293344,210.653476 229.156982,206.660516 232.787,203.3935 C236.417018,200.126484 240.712475,197.625842 245.6735,195.8915 C250.634525,194.157158 256.018971,193.29 261.827,193.29 C268.199699,193.29 273.805976,194.60082 278.646,197.2225 C283.486024,199.84418 287.317653,202.969982 290.141,206.6 L296.312,193.29 L297.522,193.29 L290.02,246.167 Z" id="a-copy"></path>
                <path d="M350.169,213.65 C348.958994,211.633323 347.628007,209.556177 346.176,207.4185 C344.723993,205.280823 343.130842,203.324676 341.3965,201.55 C339.662158,199.775324 337.806843,198.323339 335.8305,197.194 C333.854157,196.064661 331.817344,195.5 329.72,195.5 C328.34866,195.5 327.098339,195.862996 325.969,196.589 C324.839661,197.315004 324.275,198.565324 324.275,200.34 C324.275,201.953341 324.96066,203.506159 326.332,204.9985 C327.70334,206.490841 329.397323,208.003326 331.414,209.536 C333.430677,211.068674 335.648988,212.681992 338.069,214.376 C340.489012,216.070008 342.707323,217.94549 344.724,220.0025 C346.740677,222.05951 348.43466,224.318154 349.806,226.7785 C351.17734,229.238846 351.863,232.001651 351.863,235.067 C351.863,238.213016 351.056341,241.137153 349.443,243.8395 C347.829659,246.541847 345.571015,248.881157 342.667,250.8575 C339.762985,252.833843 336.274187,254.386661 332.2005,255.516 C328.126813,256.645339 323.629691,257.21 318.709,257.21 C317.256993,257.21 315.482344,257.109168 313.385,256.9075 C311.287656,256.705832 309.150011,256.403335 306.972,256 C304.793989,255.596665 302.757176,255.153002 300.8615,254.669 C298.965824,254.184998 297.453339,253.620337 296.324,252.975 L297.292,236.64 L298.502,236.64 C299.712006,239.463347 301.143825,242.064821 302.7975,244.4445 C304.451175,246.824179 306.185491,248.860992 308.0005,250.555 C309.815509,252.249008 311.69099,253.579995 313.627,254.548 C315.56301,255.516005 317.49899,256 319.435,256 C321.37101,256 322.984327,255.536171 324.275,254.6085 C325.565673,253.680829 326.211,252.410341 326.211,250.797 C326.211,249.506327 325.545507,248.256006 324.2145,247.046 C322.883493,245.835994 321.209677,244.585673 319.193,243.295 C317.176323,242.004327 314.978179,240.592674 312.5985,239.06 C310.218821,237.527326 308.020677,235.752677 306.004,233.736 C303.987323,231.719323 302.313507,229.40018 300.9825,226.7785 C299.651493,224.15682 298.986,221.111684 298.986,217.643 C298.986,214.90032 299.550661,212.15768 300.68,209.415 C301.809339,206.67232 303.624321,204.171678 306.125,201.913 C308.625679,199.654322 311.832147,197.819174 315.7445,196.4075 C319.656853,194.995826 324.395972,194.29 329.962,194.29 C332.785347,194.29 336.213646,194.652996 340.247,195.379 C344.280353,196.105004 348.111982,197.15366 351.742,198.525 L351.379,213.65 L350.169,213.65 Z" id="s-copy-2"></path>
            </g>
        </g>
    </g>
</svg>